<?xml version="1.0" encoding="UTF-8" standalone="no"?>
<!-- Created with Inkscape (http://www.inkscape.org/) -->

<svg
   width="19.137817mm"
   height="12.143058mm"
   viewBox="0 0 19.137817 12.143058"
   version="1.1"
   id="svg1"
   xml:space="preserve"
   inkscape:version="1.3.2 (091e20e, 2023-11-25, custom)"
   sodipodi:docname="poppy-master.svg"
   xmlns:inkscape="http://www.inkscape.org/namespaces/inkscape"
   xmlns:sodipodi="http://sodipodi.sourceforge.net/DTD/sodipodi-0.dtd"
   xmlns:xlink="http://www.w3.org/1999/xlink"
   xmlns="http://www.w3.org/2000/svg"
   xmlns:svg="http://www.w3.org/2000/svg"><sodipodi:namedview
     id="namedview1"
     pagecolor="#ffffff"
     bordercolor="#000000"
     borderopacity="0.25"
     inkscape:showpageshadow="2"
     inkscape:pageopacity="0.0"
     inkscape:pagecheckerboard="0"
     inkscape:deskcolor="#d1d1d1"
     inkscape:document-units="mm"
     inkscape:zoom="1.4142136"
     inkscape:cx="1555.6349"
     inkscape:cy="2033.9927"
     inkscape:window-width="1920"
     inkscape:window-height="991"
     inkscape:window-x="-9"
     inkscape:window-y="-9"
     inkscape:window-maximized="1"
     inkscape:current-layer="layer1"
     showguides="false"><sodipodi:guide
       position="100.61554,577.49995"
       orientation="0,-1"
       id="guide92"
       inkscape:locked="false" /></sodipodi:namedview><defs
     id="defs1" /><g
     inkscape:label="Layer 1"
     inkscape:groupmode="layer"
     id="layer1"
     transform="translate(-419.62144,-323.95775)"><text
       xml:space="preserve"
       style="font-style:normal;font-variant:normal;font-weight:normal;font-stretch:normal;font-size:4.74339px;font-family:Sans;-inkscape-font-specification:'Sans, Normal';font-variant-ligatures:normal;font-variant-caps:normal;font-variant-numeric:normal;font-variant-east-asian:normal;opacity:1;fill:#f97bca;fill-opacity:1;stroke:none;stroke-width:0.10667"
       id="text121713"><textPath
         xlink:href="#path121715"
         id="textPath121715"><tspan
           id="tspan121713"
           style="font-style:normal;font-variant:normal;font-weight:normal;font-stretch:normal;font-size:4.74339px;font-family:Signatrue;-inkscape-font-specification:'Signatrue, Normal';font-variant-ligatures:normal;font-variant-caps:normal;font-variant-numeric:normal;font-variant-east-asian:normal;stroke-width:0.10667"
           dx="-2.1199999">Fololow Beth on Social Media</tspan></textPath></text><path
       style="opacity:0.0147059;fill:none;fill-opacity:1;stroke:#000000;stroke-width:0.564999;stroke-dasharray:none"
       d="m 309.40139,437.52451 c 7.68571,-9.79836 42.41662,-12.18048 58.60197,-8.02783"
       id="path121715"
       sodipodi:nodetypes="cc" /><g
       id="g129"><path
         style="font-size:179.375px;line-height:0em;font-family:'Bookman Old Style';-inkscape-font-specification:'Bookman Old Style, Normal';fill:#434343;fill-opacity:1;stroke:#ff55dd;stroke-width:0;stroke-opacity:0.992157"
         d="m 420.94245,323.95773 6.5874,0.0548 0.15939,1.96661 -0.14332,-0.006 c 0,-0.32283 -0.32069,-0.75507 -0.80188,-0.75507 l -5.75446,-0.0865 -0.33184,3.64858 c 1.10454,-0.52963 1.86319,-0.71339 3.04752,-0.75915 3.08839,-0.1207 4.51405,1.71925 4.55364,3.63764 0.0637,3.08342 -1.94701,4.44217 -4.46304,4.44217 -1.38229,0 -2.65958,-0.5953 -3.51935,-1.53811 -0.52445,-0.57509 -0.91342,-1.13972 -0.44525,-1.65949 0.32908,-0.36535 0.87241,0.0307 0.87241,0.0307 -0.69206,1.42083 0.82547,2.99675 3.06464,2.99675 3.25722,0 2.83953,-2.12784 3.00023,-3.29352 0.16835,-1.2211 -0.3493,-3.29703 -1.53312,-3.84367 -0.52763,-0.26509 -1.17251,-0.45102 -1.93464,-0.45102 -1.13672,-0.0547 -1.85841,0.32722 -2.858,0.75599 z"
         id="path113"
         aria-label="5"
         sodipodi:nodetypes="cccccccsssssssscscc" /><path
         style="font-size:179.375px;line-height:0em;font-family:'Bookman Old Style';-inkscape-font-specification:'Bookman Old Style, Normal';fill:#434343;fill-opacity:1;stroke:#ff55dd;stroke-width:0;stroke-opacity:0.992157"
         d="m 431.44135,323.95773 6.5874,0.0548 0.15938,1.96661 -0.14331,-0.006 c 0,-0.32283 -0.3207,-0.75507 -0.80187,-0.75507 l -5.75447,-0.0865 -0.33184,3.64858 c 1.10453,-0.52963 1.86319,-0.71339 3.04751,-0.75915 3.0884,-0.1207 4.51405,1.71925 4.55365,3.63764 0.0636,3.08342 -1.94702,4.44217 -4.46304,4.44217 -1.38229,0 -2.65959,-0.5953 -3.51936,-1.53811 -0.52444,-0.57509 -0.91342,-1.13972 -0.44524,-1.65949 0.32908,-0.36535 0.87242,0.0307 0.87242,0.0307 -0.69207,1.42083 0.82546,2.99675 3.06464,2.99675 3.25721,0 2.83952,-2.12784 3.00022,-3.29352 0.16834,-1.2211 -0.3493,-3.29703 -1.53312,-3.84367 -0.52763,-0.26509 -1.17251,-0.45102 -1.93464,-0.45102 -1.13672,-0.0547 -1.85841,0.32722 -2.85801,0.75599 z"
         id="path127"
         aria-label="5"
         sodipodi:nodetypes="cccccccsssssssscscc"
         inkscape:export-filename="logo.svg"
         inkscape:export-xdpi="96"
         inkscape:export-ydpi="96" /></g></g></svg>
