<?xml version="1.0" encoding="UTF-8" standalone="no"?>
<!-- Created with Inkscape (http://www.inkscape.org/) -->

<svg
   width="109.08468mm"
   height="23.013971mm"
   viewBox="0 0 109.08468 23.013971"
   version="1.1"
   id="svg1"
   xml:space="preserve"
   inkscape:version="1.3.2 (091e20e, 2023-11-25, custom)"
   sodipodi:docname="poppy-master.svg"
   xmlns:inkscape="http://www.inkscape.org/namespaces/inkscape"
   xmlns:sodipodi="http://sodipodi.sourceforge.net/DTD/sodipodi-0.dtd"
   xmlns:xlink="http://www.w3.org/1999/xlink"
   xmlns="http://www.w3.org/2000/svg"
   xmlns:svg="http://www.w3.org/2000/svg"><sodipodi:namedview
     id="namedview1"
     pagecolor="#ffffff"
     bordercolor="#000000"
     borderopacity="0.25"
     inkscape:showpageshadow="2"
     inkscape:pageopacity="0.0"
     inkscape:pagecheckerboard="0"
     inkscape:deskcolor="#d1d1d1"
     inkscape:document-units="mm"
     inkscape:zoom="1.4142136"
     inkscape:cx="1555.6349"
     inkscape:cy="2033.9927"
     inkscape:window-width="1920"
     inkscape:window-height="991"
     inkscape:window-x="-9"
     inkscape:window-y="-9"
     inkscape:window-maximized="1"
     inkscape:current-layer="layer1"
     showguides="false"><sodipodi:guide
       position="224.98145,569.80411"
       orientation="0,-1"
       id="guide92"
       inkscape:locked="false" /></sodipodi:namedview><defs
     id="defs1" /><g
     inkscape:label="Layer 1"
     inkscape:groupmode="layer"
     id="layer1"
     transform="translate(-295.25553,-316.26192)"><text
       xml:space="preserve"
       style="font-style:normal;font-variant:normal;font-weight:normal;font-stretch:normal;font-size:4.74339px;font-family:Sans;-inkscape-font-specification:'Sans, Normal';font-variant-ligatures:normal;font-variant-caps:normal;font-variant-numeric:normal;font-variant-east-asian:normal;opacity:1;fill:#f97bca;fill-opacity:1;stroke:none;stroke-width:0.10667"
       id="text121713"><textPath
         xlink:href="#path121715"
         id="textPath121715"><tspan
           id="tspan121713"
           style="font-style:normal;font-variant:normal;font-weight:normal;font-stretch:normal;font-size:4.74339px;font-family:Signatrue;-inkscape-font-specification:'Signatrue, Normal';font-variant-ligatures:normal;font-variant-caps:normal;font-variant-numeric:normal;font-variant-east-asian:normal;stroke-width:0.10667"
           dx="-2.1199999">Fololow Beth on Social Media</tspan></textPath></text><path
       style="opacity:0.0147059;fill:none;fill-opacity:1;stroke:#000000;stroke-width:0.564999;stroke-dasharray:none"
       d="m 309.40139,437.52451 c 7.68571,-9.79836 42.41662,-12.18048 58.60197,-8.02783"
       id="path121715"
       sodipodi:nodetypes="cc" /><path
       style="font-size:179.375px;line-height:0em;font-family:'Bookman Old Style';-inkscape-font-specification:'Bookman Old Style, Normal';fill:#434343;fill-opacity:1;stroke:#ff55dd;stroke-width:0;stroke-opacity:0.992157"
       d="m 377.20648,320.78273 10.03213,0.0834 0.24273,2.995 -0.21826,-0.009 c 0,-0.49165 -0.48839,-1.14992 -1.2212,-1.14992 l -8.76363,-0.13167 -0.50537,5.55653 c 1.68213,-0.8066 2.83751,-1.08645 4.64115,-1.15613 4.7034,-0.18383 6.87457,2.61829 6.93487,5.53986 0.097,4.69582 -2.96516,6.7651 -6.79689,6.7651 -2.10512,0 -4.05035,-0.9066 -5.35972,-2.34243 -0.7987,-0.87582 -1.39107,-1.73571 -0.67808,-2.52728 0.50117,-0.55641 1.32862,0.0468 1.32862,0.0468 -1.05396,2.16382 1.25713,4.56383 4.66723,4.56383 4.9605,0 4.3244,-3.24055 4.56913,-5.01579 0.25638,-1.85965 -0.53196,-5.02114 -2.33483,-5.85363 -0.80354,-0.40372 -1.78565,-0.68687 -2.94632,-0.68687 -1.73114,-0.0833 -2.83023,0.49832 -4.35253,1.15132 z"
       id="path39"
       aria-label="5"
       sodipodi:nodetypes="cccccccsssssssscscc" /><g
       id="g95"
       transform="matrix(0.68066426,0,0,0.68066426,339.09746,270.72456)"><path
         style="font-weight:bold;font-size:18.9144px;line-height:0em;font-family:'Trebuchet MS';-inkscape-font-specification:'Trebuchet MS, Bold';letter-spacing:5.67734px;fill:#333333;stroke:#000000;stroke-width:0.163;stroke-dasharray:none;stroke-opacity:1"
         d="m 38.726619,100.98478 -7.419657,-8.989831 v 8.318571 H 29.488556 V 86.333502 h 0.04416 l 7.583652,9.369002 v -8.928297 h 1.710936 v 14.045313 z"
         transform="scale(1.2892416,0.7756498)"
         id="path66" /><path
         style="font-weight:bold;font-size:18.9144px;line-height:0em;font-family:'Trebuchet MS';-inkscape-font-specification:'Trebuchet MS, Bold';letter-spacing:5.67734px;fill:#333333;stroke-width:0.0625772"
         d="m 20.58962,87.873237 -1.006675,1.930229 c -0.283223,-0.252438 -0.720373,-0.501798 -1.311448,-0.748079 -0.591075,-0.252438 -1.09903,-0.378657 -1.523865,-0.378657 -1.329919,0 -2.379692,0.452542 -3.149321,1.357625 -0.769629,0.898927 -1.154444,2.105705 -1.154444,3.620334 0,1.440745 0.375579,2.59211 1.126737,3.454095 0.757315,0.861984 1.785539,1.292976 3.084673,1.292976 0.855827,0 1.560807,-0.233967 2.11494,-0.701901 V 95.040021 H 16.895401 V 92.98973 h 4.276058 v 6.058519 c -0.572604,0.467934 -1.311448,0.834278 -2.216531,1.099031 -0.898927,0.25859 -1.794775,0.38789 -2.687544,0.38789 -1.939465,0 -3.478723,-0.634174 -4.617774,-1.902521 -1.132894,-1.274505 -1.6993405,-2.955375 -1.6993405,-5.042608 0,-2.087234 0.6187815,-3.783496 1.8563445,-5.088787 1.237563,-1.305291 2.90304,-1.957936 4.996431,-1.957936 1.483845,0 2.746036,0.443306 3.786575,1.329919 z"
         transform="scale(1.2892416,0.7756498)"
         id="path75" /><path
         style="font-weight:bold;font-size:18.9144px;line-height:0em;font-family:'Trebuchet MS';-inkscape-font-specification:'Trebuchet MS, Bold';letter-spacing:5.67734px;fill:#333333;stroke-width:0.0625772"
         d="M -0.29866525,100.30428 V 86.774207 H 2.102577 v 13.530073 z"
         transform="scale(1.2892416,0.7756498)"
         id="path83" /><path
         style="font-weight:bold;font-size:18.9144px;line-height:0em;font-family:'Trebuchet MS';-inkscape-font-specification:'Trebuchet MS, Bold';letter-spacing:5.67734px;fill:#333333;stroke-width:0.0625772"
         d="m -16.338289,99.556208 0.886612,-2.151883 c 0.948183,0.664959 1.880973,0.997439 2.798371,0.997439 1.40996,0 2.11494,-0.492562 2.11494,-1.477687 0,-0.461777 -0.16624,-0.902005 -0.498719,-1.320683 -0.33248,-0.418678 -1.018989,-0.886612 -2.059527,-1.403803 -1.034381,-0.523348 -1.733205,-0.951262 -2.09647,-1.283741 -0.357107,-0.338637 -0.634174,-0.738844 -0.831199,-1.200621 -0.190868,-0.461778 -0.286302,-0.972812 -0.286302,-1.533101 0,-1.046695 0.381736,-1.914837 1.145208,-2.604425 0.769629,-0.689587 1.754754,-1.034381 2.955375,-1.034381 1.563886,0 2.7121724,0.292459 3.4448591,0.877377 l -0.7296083,2.068763 c -0.8435128,-0.603389 -1.7332038,-0.905084 -2.6690728,-0.905084 -0.554133,0 -0.985125,0.147769 -1.292977,0.443306 -0.301695,0.289381 -0.452542,0.668038 -0.452542,1.135973 0,0.775786 0.858906,1.582357 2.576718,2.419713 0.905084,0.443306 1.5577289,0.852749 1.957936,1.228328 0.400207,0.369421 0.70498,0.803492 0.9143191,1.302212 0.2093391,0.492563 0.3140086,1.043617 0.3140086,1.653163 0,1.095951 -0.4340707,1.997956 -1.3022121,2.706015 -0.8619846,0.708062 -2.0195066,1.062082 -3.4725656,1.062082 -1.262191,0 -2.401242,-0.32632 -3.417152,-0.978962 z"
         transform="scale(1.2892416,0.7756498)"
         id="path89" /><path
         style="font-weight:bold;font-size:18.9144px;line-height:0em;font-family:'Trebuchet MS';-inkscape-font-specification:'Trebuchet MS, Bold';letter-spacing:5.67734px;fill:#333333;stroke-width:0.0625772"
         d="m -29.727309,88.907622 v 3.167793 h 4.470004 v 2.041056 h -4.470004 v 4.054405 h 6.132403 v 2.133404 h -8.533646 V 86.774207 h 8.635237 v 2.133411 z"
         transform="scale(1.2892416,0.7756498)"
         id="path92" /><path
         id="path95"
         style="font-weight:bold;font-size:18.9144px;line-height:0em;font-family:'Trebuchet MS';-inkscape-font-specification:'Trebuchet MS, Bold';letter-spacing:5.67734px;fill:#333333;stroke-width:0.0625772"
         d="m -46.348961,86.681716 c -0.492562,0 -1.696224,0.0342 -3.611061,0.101934 v 13.52055 h 3.001802 c 4.685501,0 7.028121,-2.431872 7.028121,-7.295925 0,-1.908679 -0.578866,-3.438988 -1.736388,-4.590353 -1.151365,-1.157522 -2.712223,-1.736206 -4.682474,-1.736206 z m -0.110629,2.133282 c 2.690623,0 4.035939,1.447376 4.035939,4.341181 0,1.582357 -0.344951,2.813812 -1.034538,3.694268 -0.683431,0.880455 -1.631341,1.320476 -2.844276,1.320476 -0.449463,0 -0.868303,-0.01836 -1.256196,-0.0553 V 88.87962 c 0.474091,-0.0431 0.840476,-0.06462 1.099071,-0.06462 z"
         transform="scale(1.2892416,0.7756498)" /></g><path
       style="font-size:179.375px;line-height:0em;font-family:'Bookman Old Style';-inkscape-font-specification:'Bookman Old Style, Normal';fill:#434343;fill-opacity:1;stroke:#ff55dd;stroke-width:0;stroke-opacity:0.992157"
       d="m 393.19554,320.78273 10.03214,0.0834 0.24272,2.995 -0.21826,-0.009 c 0,-0.49165 -0.48839,-1.14992 -1.22119,-1.14992 l -8.76363,-0.13167 -0.50538,5.55653 c 1.68213,-0.8066 2.83751,-1.08645 4.64115,-1.15613 4.7034,-0.18383 6.87457,2.61829 6.93488,5.53986 0.0969,4.69582 -2.96517,6.7651 -6.7969,6.7651 -2.10512,0 -4.05035,-0.9066 -5.35973,-2.34243 -0.79868,-0.87582 -1.39106,-1.73571 -0.67807,-2.52728 0.50117,-0.55641 1.32864,0.0468 1.32864,0.0468 -1.05398,2.16382 1.25711,4.56383 4.66722,4.56383 4.9605,0 4.32439,-3.24055 4.56912,-5.01579 0.25638,-1.85965 -0.53196,-5.02114 -2.33483,-5.85363 -0.80354,-0.40372 -1.78564,-0.68687 -2.94631,-0.68687 -1.73115,-0.0833 -2.83023,0.49832 -4.35254,1.15132 z"
       id="path102"
       aria-label="5"
       sodipodi:nodetypes="cccccccsssssssscscc"
       inkscape:export-filename="logo.svg"
       inkscape:export-xdpi="96"
       inkscape:export-ydpi="96" /></g></svg>
